<mxfile host="65bd71144e">
    <diagram id="VmEriV1KCOyPVNPCmFrC" name="Top down">
        <mxGraphModel dx="1074" dy="692" grid="1" gridSize="10" guides="1" tooltips="1" connect="1" arrows="1" fold="1" page="1" pageScale="1" pageWidth="827" pageHeight="1169" math="0" shadow="0">
            <root>
                <mxCell id="0"/>
                <mxCell id="1" parent="0"/>
            </root>
        </mxGraphModel>
    </diagram>
    <diagram id="tgWaQy0Gne3zhAWrYTaz" name="Flowchart">
        <mxGraphModel dx="1074" dy="631" grid="1" gridSize="10" guides="1" tooltips="1" connect="1" arrows="1" fold="1" page="1" pageScale="1" pageWidth="827" pageHeight="1169" math="0" shadow="0">
            <root>
                <mxCell id="tKhykAdUTm5w_abIEbdE-0"/>
                <mxCell id="tKhykAdUTm5w_abIEbdE-1" parent="tKhykAdUTm5w_abIEbdE-0"/>
                <mxCell id="tKhykAdUTm5w_abIEbdE-8" style="edgeStyle=none;html=1;entryX=0.5;entryY=0;entryDx=0;entryDy=0;" edge="1" parent="tKhykAdUTm5w_abIEbdE-1" source="tKhykAdUTm5w_abIEbdE-2" target="tKhykAdUTm5w_abIEbdE-3">
                    <mxGeometry relative="1" as="geometry"/>
                </mxCell>
                <mxCell id="tKhykAdUTm5w_abIEbdE-2" value="start" style="strokeWidth=2;html=1;shape=mxgraph.flowchart.start_1;whiteSpace=wrap;" vertex="1" parent="tKhykAdUTm5w_abIEbdE-1">
                    <mxGeometry x="320" y="230" width="100" height="60" as="geometry"/>
                </mxCell>
                <mxCell id="tKhykAdUTm5w_abIEbdE-9" style="edgeStyle=none;html=1;entryX=0.5;entryY=0;entryDx=0;entryDy=0;" edge="1" parent="tKhykAdUTm5w_abIEbdE-1" source="tKhykAdUTm5w_abIEbdE-3" target="tKhykAdUTm5w_abIEbdE-5">
                    <mxGeometry relative="1" as="geometry"/>
                </mxCell>
                <mxCell id="tKhykAdUTm5w_abIEbdE-3" value="Get radius" style="shape=parallelogram;html=1;strokeWidth=2;perimeter=parallelogramPerimeter;whiteSpace=wrap;rounded=1;arcSize=12;size=0.23;" vertex="1" parent="tKhykAdUTm5w_abIEbdE-1">
                    <mxGeometry x="320" y="330" width="100" height="60" as="geometry"/>
                </mxCell>
                <mxCell id="tKhykAdUTm5w_abIEbdE-10" style="edgeStyle=none;html=1;entryX=0.5;entryY=0;entryDx=0;entryDy=0;" edge="1" parent="tKhykAdUTm5w_abIEbdE-1" source="tKhykAdUTm5w_abIEbdE-5" target="tKhykAdUTm5w_abIEbdE-6">
                    <mxGeometry relative="1" as="geometry"/>
                </mxCell>
                <mxCell id="tKhykAdUTm5w_abIEbdE-5" value="circumference = tau *&lt;br&gt;radius&amp;nbsp;" style="rounded=0;whiteSpace=wrap;html=1;" vertex="1" parent="tKhykAdUTm5w_abIEbdE-1">
                    <mxGeometry x="310" y="420" width="120" height="60" as="geometry"/>
                </mxCell>
                <mxCell id="tKhykAdUTm5w_abIEbdE-11" style="edgeStyle=none;html=1;entryX=0.5;entryY=0;entryDx=0;entryDy=0;entryPerimeter=0;" edge="1" parent="tKhykAdUTm5w_abIEbdE-1" source="tKhykAdUTm5w_abIEbdE-6" target="tKhykAdUTm5w_abIEbdE-7">
                    <mxGeometry relative="1" as="geometry"/>
                </mxCell>
                <mxCell id="tKhykAdUTm5w_abIEbdE-6" value="show circumference&amp;nbsp;&lt;br&gt;" style="shape=parallelogram;html=1;strokeWidth=2;perimeter=parallelogramPerimeter;whiteSpace=wrap;rounded=1;arcSize=12;size=0.23;" vertex="1" parent="tKhykAdUTm5w_abIEbdE-1">
                    <mxGeometry x="287.5" y="530" width="165" height="60" as="geometry"/>
                </mxCell>
                <mxCell id="tKhykAdUTm5w_abIEbdE-7" value="stop" style="strokeWidth=2;html=1;shape=mxgraph.flowchart.start_1;whiteSpace=wrap;" vertex="1" parent="tKhykAdUTm5w_abIEbdE-1">
                    <mxGeometry x="320" y="640" width="100" height="60" as="geometry"/>
                </mxCell>
            </root>
        </mxGraphModel>
    </diagram>
</mxfile>